# xmcd
#
# Track frame offsets: 
#        150
#        21710
#        31581
#        50059
#        61944
#        81466
#        101068
#        115353
#        142639
#        165830
#        187947
#        209513
#        234062
#        261261
#
# Disc length: 3774 seconds
#
# Revision: 0
# Processed by: cddbd v1.5.2PL0 Copyright (c) Steve Scherf et al.
# Submitted via: ExactAudioCopyFreeDBPlugin 1.0
#
DISCID=b70ebc0e
DTITLE=John Mayall - The Album
DYEAR=2019
DGENRE=Blues
TTITLE0=A Big Man
TTITLE1=I'm Your Witchdoctor
TTITLE2=John Lee Boogie
TTITLE3=Lost And Gone
TTITLE4=Reaching For A Mountain
TTITLE5=Road Show
TTITLE6=Why Worry
TTITLE7=Dream About The Blues
TTITLE8=Cold Blooded Woman
TTITLE9=The Dirty Dozen
TTITLE10=Fascinatin' Lover
TTITLE11=Chicago Line
TTITLE12=Life In The Jungle
TTITLE13=All Your Love
EXTD=
EXTT0=
EXTT1=
EXTT2=
EXTT3=
EXTT4=
EXTT5=
EXTT6=
EXTT7=
EXTT8=
EXTT9=
EXTT10=
EXTT11=
EXTT12=
EXTT13=
PLAYORDER=
